<svg width="600" height="263" viewBox="0 0 600 263" fill="none" xmlns="http://www.w3.org/2000/svg">
<rect width="600" height="262.5" fill="white"/>
<path d="M256.565 110.845H258.221V77.2759C258.221 54.0706 277.286 35 300.497 35C324.119 35 343.184 54.0653 343.184 77.2759V110.845H344.439C355.214 110.845 363.916 119.963 363.916 130.327V207.854C363.916 210.41 363.412 212.942 362.433 215.304C361.454 217.666 360.019 219.811 358.21 221.618C356.401 223.425 354.254 224.858 351.891 225.834C349.528 226.811 346.996 227.312 344.439 227.309H256.565C254.006 227.312 251.471 226.81 249.106 225.832C246.741 224.854 244.593 223.419 242.783 221.609C240.973 219.8 239.538 217.651 238.56 215.286C237.582 212.921 237.08 210.386 237.083 207.827V130.327C237.083 119.963 245.817 110.845 256.565 110.845ZM268.584 110.845H332.399V77.2759C332.395 68.8135 329.031 60.6988 323.047 54.7149C317.064 48.7311 308.949 45.3675 300.486 45.3633C283.082 45.3633 268.574 59.8719 268.574 77.2759L268.584 110.845ZM344.439 121.625H256.565C251.592 121.625 247.446 125.765 247.446 130.327V207.854C247.467 210.266 248.434 212.573 250.14 214.279C251.846 215.984 254.153 216.952 256.565 216.972H344.439C346.851 216.95 349.157 215.982 350.861 214.277C352.566 212.571 353.532 210.265 353.553 207.854V130.327C353.542 125.765 349.402 121.625 344.439 121.625Z" fill="#01217B"/>
<path fill-rule="evenodd" clip-rule="evenodd" d="M300.497 146.075C304.114 146.106 307.574 147.557 310.132 150.115C312.69 152.673 314.141 156.133 314.172 159.75C314.172 165.551 310.855 170.113 306.298 172.597L307.954 192.079H293.034L294.696 172.597C290.134 170.113 286.816 165.551 286.816 159.75C286.849 156.132 288.302 152.672 290.86 150.115C293.419 147.557 296.879 146.106 300.497 146.075Z" fill="#01217B"/>
</svg>
